<mxfile host="app.diagrams.net" modified="2023-06-06T14:13:40.640Z" agent="Mozilla/5.0 (Windows NT 10.0; Win64; x64) AppleWebKit/537.36 (KHTML, like Gecko) Chrome/114.0.0.0 Safari/537.36" etag="t3Xg3Es_InQSh4YnWimC" version="21.3.7" type="github">
  <diagram id="prtHgNgQTEPvFCAcTncT" name="Page-1">
    <mxGraphModel dx="1417" dy="1216" grid="0" gridSize="10" guides="0" tooltips="1" connect="1" arrows="1" fold="1" page="0" pageScale="1" pageWidth="827" pageHeight="1169" math="0" shadow="0">
      <root>
        <mxCell id="0" />
        <mxCell id="1" parent="0" />
        <mxCell id="dNxyNK7c78bLwvsdeMH5-19" value="new" style="swimlane;html=1;childLayout=stackLayout;resizeParent=1;resizeParentMax=0;horizontal=0;startSize=20;horizontalStack=0;" parent="1" vertex="1">
          <mxGeometry x="124" y="520" width="1951" height="741" as="geometry" />
        </mxCell>
        <mxCell id="nP0fV60kE_Xsv_RjXeuA-58" style="edgeStyle=orthogonalEdgeStyle;rounded=0;orthogonalLoop=1;jettySize=auto;html=1;entryX=0.5;entryY=1;entryDx=0;entryDy=0;exitX=0.5;exitY=0;exitDx=0;exitDy=0;" parent="dNxyNK7c78bLwvsdeMH5-19" source="2SLstcdZzmgSpFHANEhk-60" target="nP0fV60kE_Xsv_RjXeuA-55" edge="1">
          <mxGeometry relative="1" as="geometry">
            <mxPoint x="1779.5" y="382.9999999999998" as="sourcePoint" />
          </mxGeometry>
        </mxCell>
        <mxCell id="nP0fV60kE_Xsv_RjXeuA-60" style="edgeStyle=orthogonalEdgeStyle;rounded=0;orthogonalLoop=1;jettySize=auto;html=1;entryX=0.5;entryY=1;entryDx=0;entryDy=0;" parent="dNxyNK7c78bLwvsdeMH5-19" source="nP0fV60kE_Xsv_RjXeuA-55" target="nP0fV60kE_Xsv_RjXeuA-59" edge="1">
          <mxGeometry relative="1" as="geometry" />
        </mxCell>
        <mxCell id="dNxyNK7c78bLwvsdeMH5-20" value="User" style="swimlane;html=1;startSize=20;horizontal=0;" parent="dNxyNK7c78bLwvsdeMH5-19" vertex="1">
          <mxGeometry x="20" width="1931" height="254" as="geometry" />
        </mxCell>
        <mxCell id="dNxyNK7c78bLwvsdeMH5-25" value="" style="edgeStyle=orthogonalEdgeStyle;rounded=0;orthogonalLoop=1;jettySize=auto;html=1;" parent="dNxyNK7c78bLwvsdeMH5-20" source="dNxyNK7c78bLwvsdeMH5-23" target="dNxyNK7c78bLwvsdeMH5-24" edge="1">
          <mxGeometry relative="1" as="geometry" />
        </mxCell>
        <mxCell id="dNxyNK7c78bLwvsdeMH5-23" value="User" style="ellipse;whiteSpace=wrap;html=1;" parent="dNxyNK7c78bLwvsdeMH5-20" vertex="1">
          <mxGeometry x="40" y="40" width="40" height="40" as="geometry" />
        </mxCell>
        <mxCell id="nP0fV60kE_Xsv_RjXeuA-33" style="edgeStyle=orthogonalEdgeStyle;rounded=0;orthogonalLoop=1;jettySize=auto;html=1;entryX=0;entryY=0.5;entryDx=0;entryDy=0;" parent="dNxyNK7c78bLwvsdeMH5-20" source="dNxyNK7c78bLwvsdeMH5-24" target="dNxyNK7c78bLwvsdeMH5-30" edge="1">
          <mxGeometry relative="1" as="geometry" />
        </mxCell>
        <mxCell id="dNxyNK7c78bLwvsdeMH5-24" value="Creates new garden" style="rounded=0;whiteSpace=wrap;html=1;fontFamily=Helvetica;fontSize=12;fontColor=#000000;align=center;" parent="dNxyNK7c78bLwvsdeMH5-20" vertex="1">
          <mxGeometry x="120" y="30" width="80" height="60" as="geometry" />
        </mxCell>
        <mxCell id="nP0fV60kE_Xsv_RjXeuA-34" style="edgeStyle=orthogonalEdgeStyle;rounded=0;orthogonalLoop=1;jettySize=auto;html=1;" parent="dNxyNK7c78bLwvsdeMH5-20" source="dNxyNK7c78bLwvsdeMH5-30" target="nP0fV60kE_Xsv_RjXeuA-28" edge="1">
          <mxGeometry relative="1" as="geometry" />
        </mxCell>
        <mxCell id="dNxyNK7c78bLwvsdeMH5-30" value="Fills the garden&#39;s address" style="rounded=0;whiteSpace=wrap;html=1;fontFamily=Helvetica;fontSize=12;fontColor=#000000;align=center;" parent="dNxyNK7c78bLwvsdeMH5-20" vertex="1">
          <mxGeometry x="240" y="30" width="80" height="60" as="geometry" />
        </mxCell>
        <mxCell id="nP0fV60kE_Xsv_RjXeuA-28" value="Fills the garden&#39;s dimensions (length-width)" style="rounded=0;whiteSpace=wrap;html=1;fontFamily=Helvetica;fontSize=12;fontColor=#000000;align=center;" parent="dNxyNK7c78bLwvsdeMH5-20" vertex="1">
          <mxGeometry x="383" y="29" width="80" height="60" as="geometry" />
        </mxCell>
        <mxCell id="2SLstcdZzmgSpFHANEhk-72" style="edgeStyle=orthogonalEdgeStyle;rounded=0;orthogonalLoop=1;jettySize=auto;html=1;entryX=0;entryY=0.5;entryDx=0;entryDy=0;fontFamily=Helvetica;fontSize=12;fontColor=default;" edge="1" parent="dNxyNK7c78bLwvsdeMH5-20" source="nP0fV60kE_Xsv_RjXeuA-32" target="2SLstcdZzmgSpFHANEhk-52">
          <mxGeometry relative="1" as="geometry" />
        </mxCell>
        <mxCell id="nP0fV60kE_Xsv_RjXeuA-32" value="choose n favourite vegetables" style="rounded=0;whiteSpace=wrap;html=1;fontFamily=Helvetica;fontSize=12;fontColor=#000000;align=center;" parent="dNxyNK7c78bLwvsdeMH5-20" vertex="1">
          <mxGeometry x="867" y="113" width="152" height="53" as="geometry" />
        </mxCell>
        <mxCell id="nP0fV60kE_Xsv_RjXeuA-59" value="is happy" style="rounded=0;whiteSpace=wrap;html=1;fontFamily=Helvetica;fontSize=12;fontColor=#000000;align=center;" parent="dNxyNK7c78bLwvsdeMH5-20" vertex="1">
          <mxGeometry x="1747" y="36" width="80" height="60" as="geometry" />
        </mxCell>
        <mxCell id="2SLstcdZzmgSpFHANEhk-52" value="validates&lt;br&gt;" style="rounded=0;whiteSpace=wrap;html=1;fontFamily=Helvetica;fontSize=12;fontColor=#000000;align=center;" vertex="1" parent="dNxyNK7c78bLwvsdeMH5-20">
          <mxGeometry x="1078" y="110" width="98" height="60" as="geometry" />
        </mxCell>
        <mxCell id="dNxyNK7c78bLwvsdeMH5-21" value="Client" style="swimlane;html=1;startSize=20;horizontal=0;" parent="dNxyNK7c78bLwvsdeMH5-19" vertex="1">
          <mxGeometry x="20" y="254" width="1931" height="120" as="geometry" />
        </mxCell>
        <mxCell id="nP0fV60kE_Xsv_RjXeuA-42" value="Displays the list" style="rounded=0;whiteSpace=wrap;html=1;fontFamily=Helvetica;fontSize=12;fontColor=#000000;align=center;" parent="dNxyNK7c78bLwvsdeMH5-21" vertex="1">
          <mxGeometry x="804" y="22" width="80" height="60" as="geometry" />
        </mxCell>
        <mxCell id="nP0fV60kE_Xsv_RjXeuA-55" value="Displays the garden map and shopping list" style="rounded=0;whiteSpace=wrap;html=1;fontFamily=Helvetica;fontSize=12;fontColor=#000000;align=center;" parent="dNxyNK7c78bLwvsdeMH5-21" vertex="1">
          <mxGeometry x="1718" y="22" width="138" height="60" as="geometry" />
        </mxCell>
        <mxCell id="nP0fV60kE_Xsv_RjXeuA-44" style="edgeStyle=orthogonalEdgeStyle;rounded=0;orthogonalLoop=1;jettySize=auto;html=1;entryX=0;entryY=0.5;entryDx=0;entryDy=0;" parent="dNxyNK7c78bLwvsdeMH5-19" source="nP0fV60kE_Xsv_RjXeuA-42" target="nP0fV60kE_Xsv_RjXeuA-32" edge="1">
          <mxGeometry relative="1" as="geometry" />
        </mxCell>
        <mxCell id="2SLstcdZzmgSpFHANEhk-13" style="edgeStyle=orthogonalEdgeStyle;rounded=0;orthogonalLoop=1;jettySize=auto;html=1;entryX=0.5;entryY=0;entryDx=0;entryDy=0;" edge="1" parent="dNxyNK7c78bLwvsdeMH5-19" source="nP0fV60kE_Xsv_RjXeuA-28" target="2SLstcdZzmgSpFHANEhk-12">
          <mxGeometry relative="1" as="geometry">
            <Array as="points">
              <mxPoint x="506" y="59" />
            </Array>
          </mxGeometry>
        </mxCell>
        <mxCell id="2SLstcdZzmgSpFHANEhk-19" style="edgeStyle=orthogonalEdgeStyle;rounded=0;orthogonalLoop=1;jettySize=auto;html=1;entryX=0.5;entryY=1;entryDx=0;entryDy=0;" edge="1" parent="dNxyNK7c78bLwvsdeMH5-19" source="2SLstcdZzmgSpFHANEhk-18" target="nP0fV60kE_Xsv_RjXeuA-42">
          <mxGeometry relative="1" as="geometry" />
        </mxCell>
        <mxCell id="2SLstcdZzmgSpFHANEhk-64" style="edgeStyle=orthogonalEdgeStyle;rounded=0;orthogonalLoop=1;jettySize=auto;html=1;fontFamily=Helvetica;fontSize=12;fontColor=default;entryX=0.5;entryY=0;entryDx=0;entryDy=0;" edge="1" parent="dNxyNK7c78bLwvsdeMH5-19" source="nP0fV60kE_Xsv_RjXeuA-28">
          <mxGeometry relative="1" as="geometry">
            <mxPoint x="155" y="587" as="targetPoint" />
            <Array as="points">
              <mxPoint x="443" y="147" />
              <mxPoint x="154" y="147" />
              <mxPoint x="154" y="587" />
            </Array>
          </mxGeometry>
        </mxCell>
        <mxCell id="dNxyNK7c78bLwvsdeMH5-22" value="new garde" style="swimlane;html=1;startSize=20;horizontal=0;" parent="dNxyNK7c78bLwvsdeMH5-19" vertex="1">
          <mxGeometry x="20" y="374" width="1931" height="367" as="geometry" />
        </mxCell>
        <mxCell id="nP0fV60kE_Xsv_RjXeuA-41" style="edgeStyle=orthogonalEdgeStyle;rounded=0;orthogonalLoop=1;jettySize=auto;html=1;entryX=0;entryY=0.5;entryDx=0;entryDy=0;" parent="dNxyNK7c78bLwvsdeMH5-22" target="nP0fV60kE_Xsv_RjXeuA-39" edge="1">
          <mxGeometry relative="1" as="geometry">
            <mxPoint x="549.9999999999998" y="292" as="sourcePoint" />
          </mxGeometry>
        </mxCell>
        <mxCell id="nP0fV60kE_Xsv_RjXeuA-39" value="Gets the list of weather suitable vegetables&lt;br&gt;" style="rounded=0;whiteSpace=wrap;html=1;fontFamily=Helvetica;fontSize=12;fontColor=#000000;align=center;" parent="dNxyNK7c78bLwvsdeMH5-22" vertex="1">
          <mxGeometry x="598" y="244" width="102" height="91" as="geometry" />
        </mxCell>
        <mxCell id="nP0fV60kE_Xsv_RjXeuA-53" style="edgeStyle=orthogonalEdgeStyle;rounded=0;orthogonalLoop=1;jettySize=auto;html=1;entryX=0.045;entryY=0.544;entryDx=0;entryDy=0;entryPerimeter=0;" parent="dNxyNK7c78bLwvsdeMH5-22" edge="1">
          <mxGeometry relative="1" as="geometry">
            <mxPoint x="1538" y="60" as="sourcePoint" />
            <mxPoint x="1582.6349999999998" y="59.136000000000195" as="targetPoint" />
          </mxGeometry>
        </mxCell>
        <mxCell id="nP0fV60kE_Xsv_RjXeuA-54" style="edgeStyle=orthogonalEdgeStyle;rounded=0;orthogonalLoop=1;jettySize=auto;html=1;entryX=0;entryY=0.5;entryDx=0;entryDy=0;" parent="dNxyNK7c78bLwvsdeMH5-22" target="2SLstcdZzmgSpFHANEhk-60" edge="1">
          <mxGeometry relative="1" as="geometry">
            <mxPoint x="1681" y="55" as="sourcePoint" />
            <mxPoint x="1708" y="56" as="targetPoint" />
          </mxGeometry>
        </mxCell>
        <mxCell id="2SLstcdZzmgSpFHANEhk-16" style="edgeStyle=orthogonalEdgeStyle;rounded=0;orthogonalLoop=1;jettySize=auto;html=1;" edge="1" parent="dNxyNK7c78bLwvsdeMH5-22" source="2SLstcdZzmgSpFHANEhk-12" target="2SLstcdZzmgSpFHANEhk-68">
          <mxGeometry relative="1" as="geometry">
            <mxPoint x="651" y="75" as="targetPoint" />
          </mxGeometry>
        </mxCell>
        <mxCell id="2SLstcdZzmgSpFHANEhk-69" style="edgeStyle=orthogonalEdgeStyle;rounded=0;orthogonalLoop=1;jettySize=auto;html=1;fontFamily=Helvetica;fontSize=12;fontColor=default;entryX=0.5;entryY=0;entryDx=0;entryDy=0;" edge="1" parent="dNxyNK7c78bLwvsdeMH5-22" source="2SLstcdZzmgSpFHANEhk-12" target="2SLstcdZzmgSpFHANEhk-71">
          <mxGeometry relative="1" as="geometry">
            <mxPoint x="485.5" y="182" as="targetPoint" />
          </mxGeometry>
        </mxCell>
        <mxCell id="2SLstcdZzmgSpFHANEhk-12" value="Caluclates the number of compartments&amp;nbsp;&lt;br&gt;n = (W+0.3)/0.8" style="rounded=0;whiteSpace=wrap;html=1;fontFamily=Helvetica;fontSize=12;fontColor=#000000;align=center;" vertex="1" parent="dNxyNK7c78bLwvsdeMH5-22">
          <mxGeometry x="434" y="21" width="103" height="68" as="geometry" />
        </mxCell>
        <mxCell id="2SLstcdZzmgSpFHANEhk-17" style="edgeStyle=orthogonalEdgeStyle;rounded=0;orthogonalLoop=1;jettySize=auto;html=1;entryX=0;entryY=0.5;entryDx=0;entryDy=0;" edge="1" parent="dNxyNK7c78bLwvsdeMH5-22" source="2SLstcdZzmgSpFHANEhk-68" target="2SLstcdZzmgSpFHANEhk-18">
          <mxGeometry relative="1" as="geometry">
            <mxPoint x="923" y="159" as="targetPoint" />
            <mxPoint x="723.9805488942179" y="144.51851851851848" as="sourcePoint" />
          </mxGeometry>
        </mxCell>
        <mxCell id="nP0fV60kE_Xsv_RjXeuA-43" style="edgeStyle=orthogonalEdgeStyle;rounded=0;orthogonalLoop=1;jettySize=auto;html=1;entryX=0.5;entryY=1;entryDx=0;entryDy=0;" parent="dNxyNK7c78bLwvsdeMH5-22" source="nP0fV60kE_Xsv_RjXeuA-39" target="2SLstcdZzmgSpFHANEhk-68" edge="1">
          <mxGeometry relative="1" as="geometry">
            <mxPoint x="651" y="214" as="targetPoint" />
          </mxGeometry>
        </mxCell>
        <mxCell id="2SLstcdZzmgSpFHANEhk-18" value="Suggest the list of vegetables" style="rounded=0;whiteSpace=wrap;html=1;" vertex="1" parent="dNxyNK7c78bLwvsdeMH5-22">
          <mxGeometry x="779" y="123" width="120" height="60" as="geometry" />
        </mxCell>
        <mxCell id="2SLstcdZzmgSpFHANEhk-58" value="processes the data" style="rounded=0;whiteSpace=wrap;html=1;strokeColor=default;fontFamily=Helvetica;fontSize=12;fontColor=default;fillColor=default;" vertex="1" parent="dNxyNK7c78bLwvsdeMH5-22">
          <mxGeometry x="1419" y="39" width="120" height="60" as="geometry" />
        </mxCell>
        <mxCell id="2SLstcdZzmgSpFHANEhk-59" value="generate the garden map" style="rounded=0;whiteSpace=wrap;html=1;strokeColor=default;fontFamily=Helvetica;fontSize=12;fontColor=default;fillColor=default;" vertex="1" parent="dNxyNK7c78bLwvsdeMH5-22">
          <mxGeometry x="1586" y="33" width="101" height="60" as="geometry" />
        </mxCell>
        <mxCell id="2SLstcdZzmgSpFHANEhk-60" value="generate the shopping list" style="rounded=0;whiteSpace=wrap;html=1;strokeColor=default;fontFamily=Helvetica;fontSize=12;fontColor=default;fillColor=default;" vertex="1" parent="dNxyNK7c78bLwvsdeMH5-22">
          <mxGeometry x="1727" y="26" width="120" height="60" as="geometry" />
        </mxCell>
        <mxCell id="2SLstcdZzmgSpFHANEhk-68" value="excludes the vegetablestoo big&amp;nbsp;&lt;br&gt;from the list" style="rounded=0;whiteSpace=wrap;html=1;strokeColor=default;fontFamily=Helvetica;fontSize=12;fontColor=default;fillColor=default;" vertex="1" parent="dNxyNK7c78bLwvsdeMH5-22">
          <mxGeometry x="588" y="123" width="120" height="60" as="geometry" />
        </mxCell>
        <mxCell id="2SLstcdZzmgSpFHANEhk-70" value="new garden created in database" style="ellipse;whiteSpace=wrap;html=1;strokeColor=default;fontFamily=Helvetica;fontSize=12;fontColor=default;fillColor=default;" vertex="1" parent="dNxyNK7c78bLwvsdeMH5-22">
          <mxGeometry x="74" y="214" width="120" height="80" as="geometry" />
        </mxCell>
        <mxCell id="2SLstcdZzmgSpFHANEhk-71" value="new compartments created and added to the garden" style="ellipse;whiteSpace=wrap;html=1;strokeColor=default;fontFamily=Helvetica;fontSize=12;fontColor=default;fillColor=default;" vertex="1" parent="dNxyNK7c78bLwvsdeMH5-22">
          <mxGeometry x="426" y="153" width="120" height="80" as="geometry" />
        </mxCell>
        <mxCell id="2SLstcdZzmgSpFHANEhk-75" style="edgeStyle=orthogonalEdgeStyle;rounded=0;orthogonalLoop=1;jettySize=auto;html=1;entryX=0;entryY=0.5;entryDx=0;entryDy=0;fontFamily=Helvetica;fontSize=12;fontColor=default;" edge="1" parent="dNxyNK7c78bLwvsdeMH5-22" source="2SLstcdZzmgSpFHANEhk-73" target="2SLstcdZzmgSpFHANEhk-58">
          <mxGeometry relative="1" as="geometry" />
        </mxCell>
        <mxCell id="2SLstcdZzmgSpFHANEhk-73" value="determine the associated vegetables for each chosen vegetable" style="rounded=0;whiteSpace=wrap;html=1;strokeColor=default;fontFamily=Helvetica;fontSize=12;fontColor=default;fillColor=default;" vertex="1" parent="dNxyNK7c78bLwvsdeMH5-22">
          <mxGeometry x="1216" y="39" width="120" height="60" as="geometry" />
        </mxCell>
        <mxCell id="2SLstcdZzmgSpFHANEhk-74" style="edgeStyle=orthogonalEdgeStyle;rounded=0;orthogonalLoop=1;jettySize=auto;html=1;entryX=0;entryY=0.5;entryDx=0;entryDy=0;fontFamily=Helvetica;fontSize=12;fontColor=default;" edge="1" parent="dNxyNK7c78bLwvsdeMH5-19" source="2SLstcdZzmgSpFHANEhk-52" target="2SLstcdZzmgSpFHANEhk-73">
          <mxGeometry relative="1" as="geometry" />
        </mxCell>
        <mxCell id="nP0fV60kE_Xsv_RjXeuA-3" value="" style="edgeStyle=orthogonalEdgeStyle;rounded=0;orthogonalLoop=1;jettySize=auto;html=1;" parent="1" source="nP0fV60kE_Xsv_RjXeuA-1" target="nP0fV60kE_Xsv_RjXeuA-2" edge="1">
          <mxGeometry relative="1" as="geometry" />
        </mxCell>
        <mxCell id="nP0fV60kE_Xsv_RjXeuA-1" value="create new garden" style="rounded=0;whiteSpace=wrap;html=1;" parent="1" vertex="1">
          <mxGeometry x="460" y="70" width="80" height="60" as="geometry" />
        </mxCell>
        <mxCell id="nP0fV60kE_Xsv_RjXeuA-5" value="" style="edgeStyle=orthogonalEdgeStyle;rounded=0;orthogonalLoop=1;jettySize=auto;html=1;" parent="1" source="nP0fV60kE_Xsv_RjXeuA-2" target="nP0fV60kE_Xsv_RjXeuA-4" edge="1">
          <mxGeometry relative="1" as="geometry" />
        </mxCell>
        <mxCell id="nP0fV60kE_Xsv_RjXeuA-2" value="fill location" style="rounded=0;whiteSpace=wrap;html=1;" parent="1" vertex="1">
          <mxGeometry x="580" y="70" width="70" height="60" as="geometry" />
        </mxCell>
        <mxCell id="nP0fV60kE_Xsv_RjXeuA-7" value="" style="edgeStyle=orthogonalEdgeStyle;rounded=0;orthogonalLoop=1;jettySize=auto;html=1;" parent="1" source="nP0fV60kE_Xsv_RjXeuA-4" target="nP0fV60kE_Xsv_RjXeuA-6" edge="1">
          <mxGeometry relative="1" as="geometry" />
        </mxCell>
        <mxCell id="nP0fV60kE_Xsv_RjXeuA-4" value="fill dimensions" style="rounded=0;whiteSpace=wrap;html=1;" parent="1" vertex="1">
          <mxGeometry x="690" y="70" width="70" height="60" as="geometry" />
        </mxCell>
        <mxCell id="nP0fV60kE_Xsv_RjXeuA-9" value="" style="edgeStyle=orthogonalEdgeStyle;rounded=0;orthogonalLoop=1;jettySize=auto;html=1;" parent="1" source="nP0fV60kE_Xsv_RjXeuA-6" target="nP0fV60kE_Xsv_RjXeuA-8" edge="1">
          <mxGeometry relative="1" as="geometry" />
        </mxCell>
        <mxCell id="nP0fV60kE_Xsv_RjXeuA-6" value="select vegetables he likes" style="rounded=0;whiteSpace=wrap;html=1;" parent="1" vertex="1">
          <mxGeometry x="800" y="70" width="80" height="60" as="geometry" />
        </mxCell>
        <mxCell id="nP0fV60kE_Xsv_RjXeuA-18" style="edgeStyle=orthogonalEdgeStyle;rounded=0;orthogonalLoop=1;jettySize=auto;html=1;entryX=0;entryY=0.5;entryDx=0;entryDy=0;" parent="1" source="nP0fV60kE_Xsv_RjXeuA-8" target="nP0fV60kE_Xsv_RjXeuA-12" edge="1">
          <mxGeometry relative="1" as="geometry">
            <Array as="points">
              <mxPoint x="930" y="-40" />
            </Array>
          </mxGeometry>
        </mxCell>
        <mxCell id="nP0fV60kE_Xsv_RjXeuA-8" value="select vegetables he doesn&#39;t like" style="rounded=0;whiteSpace=wrap;html=1;" parent="1" vertex="1">
          <mxGeometry x="920" y="70" width="80" height="60" as="geometry" />
        </mxCell>
        <mxCell id="nP0fV60kE_Xsv_RjXeuA-20" value="" style="edgeStyle=orthogonalEdgeStyle;rounded=0;orthogonalLoop=1;jettySize=auto;html=1;" parent="1" source="nP0fV60kE_Xsv_RjXeuA-10" target="nP0fV60kE_Xsv_RjXeuA-19" edge="1">
          <mxGeometry relative="1" as="geometry" />
        </mxCell>
        <mxCell id="nP0fV60kE_Xsv_RjXeuA-10" value="add vegetables suggested by the app" style="rounded=0;whiteSpace=wrap;html=1;" parent="1" vertex="1">
          <mxGeometry x="1070" y="70" width="90" height="60" as="geometry" />
        </mxCell>
        <mxCell id="nP0fV60kE_Xsv_RjXeuA-17" style="edgeStyle=orthogonalEdgeStyle;rounded=0;orthogonalLoop=1;jettySize=auto;html=1;entryX=0.5;entryY=0;entryDx=0;entryDy=0;" parent="1" source="nP0fV60kE_Xsv_RjXeuA-12" target="nP0fV60kE_Xsv_RjXeuA-10" edge="1">
          <mxGeometry relative="1" as="geometry" />
        </mxCell>
        <mxCell id="nP0fV60kE_Xsv_RjXeuA-12" value="suggests vegetables associated with ones choosed by user" style="rounded=0;whiteSpace=wrap;html=1;" parent="1" vertex="1">
          <mxGeometry x="1070" y="-80" width="90" height="80" as="geometry" />
        </mxCell>
        <mxCell id="nP0fV60kE_Xsv_RjXeuA-14" value="USER" style="ellipse;whiteSpace=wrap;html=1;aspect=fixed;" parent="1" vertex="1">
          <mxGeometry x="349" y="58" width="80" height="80" as="geometry" />
        </mxCell>
        <mxCell id="nP0fV60kE_Xsv_RjXeuA-15" value="APP" style="ellipse;whiteSpace=wrap;html=1;aspect=fixed;" parent="1" vertex="1">
          <mxGeometry x="351" y="-51" width="80" height="80" as="geometry" />
        </mxCell>
        <mxCell id="nP0fV60kE_Xsv_RjXeuA-22" style="edgeStyle=orthogonalEdgeStyle;rounded=0;orthogonalLoop=1;jettySize=auto;html=1;entryX=0;entryY=0.5;entryDx=0;entryDy=0;" parent="1" source="nP0fV60kE_Xsv_RjXeuA-19" target="nP0fV60kE_Xsv_RjXeuA-25" edge="1">
          <mxGeometry relative="1" as="geometry">
            <Array as="points">
              <mxPoint x="1270" y="-30" />
            </Array>
          </mxGeometry>
        </mxCell>
        <mxCell id="nP0fV60kE_Xsv_RjXeuA-19" value="validates inputs" style="rounded=0;whiteSpace=wrap;html=1;" parent="1" vertex="1">
          <mxGeometry x="1230" y="70" width="118" height="93" as="geometry" />
        </mxCell>
        <mxCell id="nP0fV60kE_Xsv_RjXeuA-24" style="edgeStyle=orthogonalEdgeStyle;rounded=0;orthogonalLoop=1;jettySize=auto;html=1;entryX=0.5;entryY=0;entryDx=0;entryDy=0;" parent="1" source="nP0fV60kE_Xsv_RjXeuA-21" target="nP0fV60kE_Xsv_RjXeuA-23" edge="1">
          <mxGeometry relative="1" as="geometry" />
        </mxCell>
        <mxCell id="nP0fV60kE_Xsv_RjXeuA-21" value="outputs the garden map and the shopping list&amp;nbsp;" style="rounded=0;whiteSpace=wrap;html=1;" parent="1" vertex="1">
          <mxGeometry x="1470" y="-60" width="80" height="60" as="geometry" />
        </mxCell>
        <mxCell id="nP0fV60kE_Xsv_RjXeuA-23" value="Saves the result" style="rounded=0;whiteSpace=wrap;html=1;" parent="1" vertex="1">
          <mxGeometry x="1470" y="70" width="80" height="60" as="geometry" />
        </mxCell>
        <mxCell id="nP0fV60kE_Xsv_RjXeuA-26" style="edgeStyle=orthogonalEdgeStyle;rounded=0;orthogonalLoop=1;jettySize=auto;html=1;entryX=0;entryY=0.5;entryDx=0;entryDy=0;" parent="1" source="nP0fV60kE_Xsv_RjXeuA-25" target="nP0fV60kE_Xsv_RjXeuA-21" edge="1">
          <mxGeometry relative="1" as="geometry" />
        </mxCell>
        <mxCell id="nP0fV60kE_Xsv_RjXeuA-25" value="processes the data" style="rhombus;whiteSpace=wrap;html=1;" parent="1" vertex="1">
          <mxGeometry x="1330" y="-75" width="90" height="90" as="geometry" />
        </mxCell>
        <mxCell id="pdYqH0JFKsMIZITRfN3r-4" style="edgeStyle=orthogonalEdgeStyle;rounded=0;orthogonalLoop=1;jettySize=auto;html=1;entryX=0.157;entryY=0.022;entryDx=0;entryDy=0;entryPerimeter=0;exitX=0.545;exitY=0.99;exitDx=0;exitDy=0;exitPerimeter=0;" parent="1" source="pdYqH0JFKsMIZITRfN3r-8" target="pdYqH0JFKsMIZITRfN3r-5" edge="1">
          <mxGeometry relative="1" as="geometry">
            <mxPoint x="578.5" y="1286.666666666667" as="targetPoint" />
            <mxPoint x="578.5" y="1254.0000000000002" as="sourcePoint" />
          </mxGeometry>
        </mxCell>
        <mxCell id="pdYqH0JFKsMIZITRfN3r-12" style="edgeStyle=orthogonalEdgeStyle;rounded=0;orthogonalLoop=1;jettySize=auto;html=1;" parent="1" source="pdYqH0JFKsMIZITRfN3r-5" target="pdYqH0JFKsMIZITRfN3r-11" edge="1">
          <mxGeometry relative="1" as="geometry" />
        </mxCell>
        <mxCell id="pdYqH0JFKsMIZITRfN3r-5" value="OpenWeather API" style="rounded=1;whiteSpace=wrap;html=1;" parent="1" vertex="1">
          <mxGeometry x="433" y="1430" width="412" height="60" as="geometry" />
        </mxCell>
        <mxCell id="pdYqH0JFKsMIZITRfN3r-8" value="Send geoloc data to API:&lt;br&gt;- long&lt;br&gt;&lt;div style=&quot;&quot;&gt;&lt;span data-darkreader-inline-color=&quot;&quot; data-darkreader-inline-bgcolor=&quot;&quot; style=&quot;background-color: initial; color: rgb(240, 240, 240); --darkreader-inline-bgcolor: initial; --darkreader-inline-color: #dfdcd7;&quot;&gt;- lat&lt;/span&gt;&lt;/div&gt;" style="rounded=0;whiteSpace=wrap;html=1;align=left;" parent="1" vertex="1">
          <mxGeometry x="433" y="1306" width="120" height="60" as="geometry" />
        </mxCell>
        <mxCell id="pdYqH0JFKsMIZITRfN3r-13" style="edgeStyle=orthogonalEdgeStyle;rounded=0;orthogonalLoop=1;jettySize=auto;html=1;entryX=0.5;entryY=1;entryDx=0;entryDy=0;" parent="1" source="pdYqH0JFKsMIZITRfN3r-11" target="2SLstcdZzmgSpFHANEhk-67" edge="1">
          <mxGeometry relative="1" as="geometry">
            <mxPoint x="608.037037037037" y="1232.979758828596" as="targetPoint" />
          </mxGeometry>
        </mxCell>
        <mxCell id="pdYqH0JFKsMIZITRfN3r-11" value="Returns weather data (yearly mean values):&lt;br&gt;- Temperature&lt;br&gt;- Humidity&lt;br&gt;- Precipitations" style="rounded=0;whiteSpace=wrap;html=1;align=left;" parent="1" vertex="1">
          <mxGeometry x="580" y="1296" width="120" height="95" as="geometry" />
        </mxCell>
        <mxCell id="2SLstcdZzmgSpFHANEhk-62" style="edgeStyle=orthogonalEdgeStyle;rounded=0;orthogonalLoop=1;jettySize=auto;html=1;fontFamily=Helvetica;fontSize=12;fontColor=default;" edge="1" parent="1" source="nP0fV60kE_Xsv_RjXeuA-28" target="pdYqH0JFKsMIZITRfN3r-8">
          <mxGeometry relative="1" as="geometry" />
        </mxCell>
        <mxCell id="2SLstcdZzmgSpFHANEhk-67" value="collect weather data" style="rounded=0;whiteSpace=wrap;html=1;strokeColor=default;fontFamily=Helvetica;fontSize=12;fontColor=default;fillColor=default;" vertex="1" parent="1">
          <mxGeometry x="573" y="1155" width="120" height="60" as="geometry" />
        </mxCell>
      </root>
    </mxGraphModel>
  </diagram>
</mxfile>
